PathFileType	4	(X/Y/Z)	c:/Users/goper/Files/vsCode/490R/osim_files/C17/C17_SSWS_05.trc
DataRate	CameraRate	NumFrames	NumMarkers	Units                	OrigDataRate	OrigDataStartFrame	OrigNumFrames
250.00	250.00	9	36	mm	250.0	1074	2146
                Frame#	Time	LPSIS			LASIS			LTH1			LTH2			LTH3			LTH4			LLFE			LMFE			LSH1			LSH2			LSH3			LSH4			LLMAL			LMMAL			LCAL			LMTP5			LTOE			LMTP1			RPSIS			RASIS			RTH1			RTH2			RTH3			RTH4			RLFE			RMFE			RSH1			RSH2			RSH3			RSH4			RLMAL			RMMAL			RCAL			RMTP1			RTOE			RMTP5		
		X1	Y1	Z1	X2	Y2	Z2	X3	Y3	Z3	X4	Y4	Z4	X5	Y5	Z5	X6	Y6	Z6	X7	Y7	Z7	X8	Y8	Z8	X9	Y9	Z9	X10	Y10	Z10	X11	Y11	Z11	X12	Y12	Z12	X13	Y13	Z13	X14	Y14	Z14	X15	Y15	Z15	X16	Y16	Z16	X17	Y17	Z17	X18	Y18	Z18	X19	Y19	Z19	X20	Y20	Z20	X21	Y21	Z21	X22	Y22	Z22	X23	Y23	Z23	X24	Y24	Z24	X25	Y25	Z25	X26	Y26	Z26	X27	Y27	Z27	X28	Y28	Z28	X29	Y29	Z29	X30	Y30	Z30	X31	Y31	Z31	X32	Y32	Z32	X33	Y33	Z33	X34	Y34	Z34	X35	Y35	Z35	X36	Y36	Z36

1074	4.29200	816.79852	1044.82837	265.76389	629.47504	984.23560	367.02396	699.17517	652.36426	394.06516	682.75372	609.99493	391.64978	640.22131	668.45978	405.31961	631.88519	622.52380	399.76089	677.00446	466.55737	381.43759	658.87488	454.93658	254.83621	888.33350	385.13190	375.43622	922.70349	359.90417	373.34875	856.53510	329.78543	376.84879	897.37909	314.14893	374.00928	1039.89795	268.80582	354.74301	1017.64886	258.43015	266.03513	1091.18921	322.25107	307.11768	1056.41284	129.25163	361.42358	1010.19281	89.71677	297.09787	1034.66370	102.08575	247.90120	810.99994	1045.62708	190.97319	624.07556	1009.13324	102.32565	606.42670	733.87573	41.11718	594.19171	688.24866	52.03236	549.56964	749.47650	51.88797	539.49402	703.26929	54.47292	505.76736	485.72583	81.57823	532.45874	502.07559	205.17958	581.30481	285.82922	83.69978	577.47559	243.07687	99.90414	519.68512	287.77945	97.43343	524.39490	242.48654	110.71620	584.73975	83.01851	147.59593	557.32593	102.46068	233.20198	654.35864	45.27697	192.31960	419.61359	42.14890	235.04770	404.33868	66.63535	189.73944	457.95224	34.75666	121.48119
1075	4.29600	810.77252	1046.75232	264.97696	624.20563	986.31378	366.94415	688.41058	653.77356	393.80081	672.25153	611.67603	391.24551	630.43420	670.63507	405.23779	621.63245	624.70282	399.76828	664.46515	468.68344	381.48615	646.10205	456.30533	254.75812	875.61768	386.42410	375.06473	909.77094	360.94696	373.04608	843.03815	330.36218	376.17389	883.52008	314.22003	372.51440	1020.66553	264.58948	352.50763	1004.10583	258.86765	265.53284	1079.38513	321.52353	306.24042	1039.92468	129.49406	361.62823	992.98553	90.69568	297.35388	1017.74701	102.13495	248.26564	804.71600	1047.08801	190.33527	617.65448	1009.41003	102.22824	602.34039	734.23456	39.81376	587.90759	689.33099	46.55587	545.18024	749.90033	51.41657	536.47522	703.27380	54.20139	504.37939	485.46317	80.90746	530.79919	501.94974	204.49977	580.68652	285.84940	83.42272	577.04791	243.04955	99.71142	518.97974	287.51797	97.16626	523.85510	242.31313	110.41839	584.68280	83.04687	147.55318	557.21454	102.58514	233.07010	654.36401	45.43397	192.29262	419.57861	42.15150	235.00725	404.33850	66.57545	189.69586	457.97696	34.69556	121.37717
1076	4.30000	804.82800	1048.52502	264.34616	618.82031	988.30402	366.76532	678.89801	655.81781	393.39502	661.81335	613.44470	390.98395	620.69745	672.77148	405.14230	611.46973	626.91571	399.78171	652.09991	470.82834	381.52335	633.56512	458.29230	254.83458	863.00928	387.52158	374.63321	896.88843	361.78738	372.62457	829.91309	331.61673	375.81259	870.10107	315.15610	372.19531	1007.18469	264.75018	351.94174	990.36249	258.97403	265.06024	1066.87244	320.08279	305.59439	1023.32782	129.47226	361.87558	975.47650	91.22572	298.25583	1000.68683	102.05554	248.62865	798.60406	1049.03467	189.91772	610.98889	1011.62830	102.20708	597.52362	734.64282	43.47193	584.41364	690.01965	46.11368	540.94122	749.91260	50.00336	533.46802	703.39777	53.90274	502.96570	485.14194	80.27802	529.24078	501.69910	203.83078	580.09521	285.88474	83.19397	576.70117	243.15909	99.52535	518.37805	287.42056	96.61220	523.45984	242.17902	110.07606	584.72821	82.78146	147.65865	557.04846	102.68007	232.92189	654.34253	45.54442	192.31955	419.52634	42.15536	234.97392	404.31891	66.53384	189.60976	457.95578	34.62204	121.29002
1077	4.30400	798.76172	1050.01440	263.82635	611.63611	990.38995	366.01199	668.88910	657.47369	393.05078	651.42499	615.31921	390.75049	610.84729	674.91235	405.06680	601.28186	629.18890	399.78033	639.82599	473.05920	381.50629	621.89825	460.66992	254.44673	850.27716	388.40851	374.25208	884.44464	361.65421	371.34421	816.64563	332.64148	375.40140	856.79968	316.01837	371.87338	993.54279	264.59879	351.39993	976.24933	258.64462	264.68744	1054.50769	318.48315	304.75485	1006.72418	129.31549	362.16910	958.15784	92.00277	298.50214	983.39606	101.68153	249.03851	792.46362	1050.76819	189.35583	604.94678	1014.72272	101.15405	593.51459	735.18872	43.09459	582.68378	691.75232	50.40937	536.97955	749.92035	48.92434	529.96680	703.60876	53.40201	501.78735	484.95477	79.70457	527.75372	501.39139	203.19151	579.99133	286.21402	82.53258	576.35504	243.24683	99.30790	517.94135	287.32254	96.02651	523.14648	242.10049	109.71435	584.74432	82.80251	147.54253	556.94879	102.80630	232.76436	654.30316	45.61627	192.33220	419.52582	42.13711	234.94910	404.32486	66.46764	189.54274	457.90289	34.53440	121.22205
1078	4.30800	792.82831	1052.01282	263.04263	605.81274	992.53455	365.68649	660.33588	659.83246	392.27264	641.09058	617.22797	390.57812	601.15100	677.23572	405.01453	590.66083	632.69635	401.47339	627.96332	475.33017	381.56934	609.40472	462.85867	254.49394	837.42883	389.07568	373.89172	871.40955	362.08835	370.90445	802.79285	333.22177	374.79086	843.38898	316.59854	371.54510	979.75183	264.09958	350.86328	962.25153	258.16489	264.13181	1042.33691	316.88730	303.61325	989.93335	128.90305	362.38699	940.41156	91.98896	299.35788	965.88580	101.15088	249.38708	786.09882	1052.23792	188.71155	598.95264	1015.29901	100.61000	590.63708	736.44940	38.35102	578.07159	692.40649	49.24173	533.10339	750.70410	50.10699	526.37463	703.82483	52.89103	500.61487	484.72415	79.19453	526.30029	501.05975	202.59256	579.58795	286.34381	82.29554	576.00964	243.39142	99.07600	517.30688	287.08228	95.78448	522.83728	242.03668	109.25490	584.46826	83.12677	147.37689	556.86023	102.90325	232.66484	654.30011	45.72744	192.33736	419.52542	42.15173	234.90170	404.30435	66.41975	189.47818	457.91348	34.45204	121.11155
1079	4.31200	786.78961	1053.52454	262.56033	599.48615	994.65051	365.23996	650.49261	661.65387	392.01471	630.83716	619.16217	390.45016	591.44257	679.49304	404.97986	580.62451	635.13544	401.56262	615.68024	477.49078	381.55884	597.00189	465.15390	254.46268	824.63135	389.54669	373.48770	858.61151	362.48303	370.55206	790.04742	334.23520	374.75351	829.95349	317.01346	371.24054	966.11334	263.47006	350.27499	948.01996	257.45773	263.62134	1029.60449	314.69864	302.63336	973.11560	128.27084	362.62875	922.50586	92.10617	299.73654	948.73407	101.59242	250.57246	780.01318	1053.97375	188.17596	592.57935	1017.97296	100.12085	585.53345	736.27716	42.39634	574.05615	693.03363	46.65005	529.03040	752.32983	53.42486	522.84351	704.04614	52.37417	499.36542	484.43317	78.69679	524.84259	500.73709	202.04451	579.20447	286.50214	82.04566	575.74603	243.50470	98.88834	517.06049	287.06918	95.26643	522.49243	241.87227	109.02658	584.38910	83.14903	147.32332	556.82214	103.01199	232.54626	654.24542	45.79032	192.33162	419.54907	42.15977	234.86461	404.31772	66.36487	189.40701	457.91864	34.37722	120.99758
1080	4.31600	780.77954	1055.21436	261.89688	594.01898	996.97003	365.00797	640.65460	663.48718	391.79150	620.62177	621.12848	390.35312	581.76434	681.75378	404.93820	570.61951	637.64575	401.69180	603.71503	479.77722	381.56354	584.61542	467.54922	254.42775	811.76624	389.83954	373.12686	845.27673	362.19186	370.12897	776.73285	334.72165	374.42392	816.78278	317.51672	370.81613	951.99097	262.41476	349.74973	933.71686	256.51044	263.00360	1016.27716	311.87460	301.78363	956.35858	127.57255	362.85336	904.66138	92.06187	300.35101	932.83136	102.76138	249.23755	774.00031	1055.91211	187.74318	585.74860	1020.55292	100.10127	581.61761	736.91479	42.04592	570.82959	693.81805	45.03304	524.76318	752.60028	52.92585	519.38263	704.42999	51.73177	498.37228	484.27921	78.21846	523.34290	500.45648	201.55794	578.87213	286.69589	81.83342	575.51465	243.66496	98.63055	516.78790	287.01724	95.01087	522.17908	241.78847	108.75890	584.34576	83.17743	147.22119	556.75989	103.10331	232.44681	654.17780	45.83165	192.32520	419.54764	42.13933	234.81557	404.34824	66.28430	189.34897	457.92780	34.32721	120.87860
1081	4.32000	774.77283	1057.23328	261.09741	588.30090	999.00519	364.62027	630.84253	665.33344	391.66141	610.39514	623.09192	390.28973	572.27454	684.19397	404.96353	560.65381	640.13019	401.73584	591.84424	482.01074	381.58392	572.40912	470.02170	254.39053	798.93738	389.90732	372.81271	832.12463	361.94974	369.70334	763.30652	335.05652	374.07513	802.87115	317.31610	370.50055	937.66040	260.76999	349.52618	919.35052	255.39223	262.44989	1003.37653	309.13651	300.66245	939.21326	126.45477	363.13742	886.42139	92.02209	301.07990	912.12152	97.98579	250.32123	767.83844	1057.60730	187.17706	579.58594	1021.37695	99.60152	579.31219	738.68744	37.11161	567.39465	694.49139	44.68811	521.72278	751.88397	50.67200	515.55078	704.91016	50.88324	497.33188	484.17963	77.83069	521.76331	500.25082	201.14336	578.57556	286.94891	81.65184	575.33142	243.87355	98.37395	516.41418	286.99332	94.71899	521.98645	241.78308	108.40783	584.30035	83.21428	147.15726	556.70142	103.21699	232.35028	654.12622	45.89597	192.33154	419.56094	42.13864	234.80278	404.36581	66.18756	189.31207	457.94574	34.23816	120.78859
1082	4.32400	768.68036	1058.94702	260.48935	582.36914	1001.25275	364.29874	621.16205	667.21936	391.52661	600.27240	625.14520	390.24872	562.72522	686.58411	404.97723	550.72620	642.58740	401.75836	580.03662	484.25912	381.55957	560.37927	472.62131	254.30513	786.07507	389.83578	372.46509	818.96246	361.52243	369.29019	749.82068	335.28714	373.67188	789.17059	317.13263	370.06973	923.61475	259.53503	348.84351	904.74768	253.92651	261.89206	990.68658	306.39438	299.48734	922.00146	125.40038	363.33932	868.35535	91.78745	301.46399	894.26117	97.50776	250.82004	761.43610	1059.00891	186.56544	573.28284	1022.54211	99.22144	573.81366	738.04675	41.53120	563.90466	695.14020	44.60859	518.31158	752.77972	50.72069	512.19226	705.19824	50.44641	496.31989	484.03867	77.50089	520.06598	500.15323	200.81142	577.88342	286.93756	81.84068	577.97668	245.33144	97.43696	516.04047	287.11774	94.28485	521.78174	241.89706	108.04244	584.23773	83.25459	147.08769	556.61591	103.33826	232.26387	654.09521	46.00526	192.34726	419.54156	42.13574	234.75906	404.39728	66.14506	189.25273	457.94431	34.19337	120.70483
